REM DIRINDEX 1\2\4,1\2\5,1\2\6,1\3\7,1\3\8,1\3\9,1\3\10
REM DIRNAME cjc058,folder01,folder02,folder03,folder04,folder05,folder06,folder07,folder08,folder09
TITLE ""
FILE "b_32.mp3" MP3
  TRACK 01 AUDIO
    TITLE "0:"
    INDEX 01 00:00:00
  TRACK 02 AUDIO
    TITLE "10:cjc058_3079"
    INDEX 01 00:00:15
  TRACK 03 AUDIO
    TITLE "0:"
    INDEX 01 00:03:66
  TRACK 04 AUDIO
    TITLE "7:cjc058_3080"
    INDEX 01 00:04:40
  TRACK 05 AUDIO
    TITLE "0:"
    INDEX 01 00:06:39
  TRACK 06 AUDIO
    TITLE "8:cjc058_3081"
    INDEX 01 00:06:71
  TRACK 07 AUDIO
    TITLE "0:"
    INDEX 01 00:09:63
  TRACK 08 AUDIO
    TITLE "9:cjc058_3082"
    INDEX 01 00:10:29
  TRACK 09 AUDIO
    TITLE "0:"
    INDEX 01 00:13:43
  TRACK 10 AUDIO
    TITLE "7:cjc058_3083"
    INDEX 01 00:14:54
  TRACK 11 AUDIO
    TITLE "0:"
    INDEX 01 00:17:06
  TRACK 12 AUDIO
    TITLE "8:cjc058_3084"
    INDEX 01 00:17:37
  TRACK 13 AUDIO
    TITLE "0:"
    INDEX 01 00:19:56
  TRACK 14 AUDIO
    TITLE "9:cjc058_3085"
    INDEX 01 00:20:24
  TRACK 15 AUDIO
    TITLE "0:"
    INDEX 01 00:23:20
  TRACK 16 AUDIO
    TITLE "7:cjc058_3086"
    INDEX 01 00:24:31
  TRACK 17 AUDIO
    TITLE "0:"
    INDEX 01 00:26:48
  TRACK 18 AUDIO
    TITLE "8:cjc058_3087"
    INDEX 01 00:27:08
  TRACK 19 AUDIO
    TITLE "0:"
    INDEX 01 00:29:05
  TRACK 20 AUDIO
    TITLE "9:cjc058_3088"
    INDEX 01 00:29:50
  TRACK 21 AUDIO
    TITLE "0:"
    INDEX 01 00:32:25
  TRACK 22 AUDIO
    TITLE "7:cjc058_3089"
    INDEX 01 00:33:32
  TRACK 23 AUDIO
    TITLE "0:"
    INDEX 01 00:35:45
  TRACK 24 AUDIO
    TITLE "8:cjc058_3090"
    INDEX 01 00:35:74
  TRACK 25 AUDIO
    TITLE "0:"
    INDEX 01 00:38:73
  TRACK 26 AUDIO
    TITLE "9:cjc058_3091"
    INDEX 01 00:39:45
  TRACK 27 AUDIO
    TITLE "0:"
    INDEX 01 00:42:66
  TRACK 28 AUDIO
    TITLE "7:cjc058_3092"
    INDEX 01 00:44:01
  TRACK 29 AUDIO
    TITLE "0:"
    INDEX 01 00:45:73
  TRACK 30 AUDIO
    TITLE "8:cjc058_3093"
    INDEX 01 00:46:31
  TRACK 31 AUDIO
    TITLE "0:"
    INDEX 01 00:47:72
  TRACK 32 AUDIO
    TITLE "9:cjc058_3094"
    INDEX 01 00:48:40
  TRACK 33 AUDIO
    TITLE "0:"
    INDEX 01 00:51:71
  TRACK 34 AUDIO
    TITLE "7:cjc058_3095"
    INDEX 01 00:53:06
  TRACK 35 AUDIO
    TITLE "0:"
    INDEX 01 00:55:18
  TRACK 36 AUDIO
    TITLE "8:cjc058_3096"
    INDEX 01 00:55:53
  TRACK 37 AUDIO
    TITLE "0:"
    INDEX 01 00:58:05
  TRACK 38 AUDIO
    TITLE "9:cjc058_3097"
    INDEX 01 00:58:48
  TRACK 39 AUDIO
    TITLE "0:"
    INDEX 01 01:01:70
  TRACK 40 AUDIO
    TITLE "7:cjc058_3098"
    INDEX 01 01:03:04
  TRACK 41 AUDIO
    TITLE "0:"
    INDEX 01 01:05:21
  TRACK 42 AUDIO
    TITLE "8:cjc058_3099"
    INDEX 01 01:05:56
  TRACK 43 AUDIO
    TITLE "0:"
    INDEX 01 01:08:38
  TRACK 44 AUDIO
    TITLE "9:cjc058_3100"
    INDEX 01 01:09:12
  TRACK 45 AUDIO
    TITLE "0:"
    INDEX 01 01:12:73
  TRACK 46 AUDIO
    TITLE "7:cjc058_3101"
    INDEX 01 01:14:06
  TRACK 47 AUDIO
    TITLE "0:"
    INDEX 01 01:16:12
  TRACK 48 AUDIO
    TITLE "8:cjc058_3102"
    INDEX 01 01:16:48
  TRACK 49 AUDIO
    TITLE "0:"
    INDEX 01 01:18:49
  TRACK 50 AUDIO
    TITLE "9:cjc058_3103"
    INDEX 01 01:19:17
  TRACK 51 AUDIO
    TITLE "0:"
    INDEX 01 01:22:31
  TRACK 52 AUDIO
    TITLE "7:cjc058_3104"
    INDEX 01 01:23:40
  TRACK 53 AUDIO
    TITLE "0:"
    INDEX 01 01:25:21
  TRACK 54 AUDIO
    TITLE "8:cjc058_3105"
    INDEX 01 01:25:53
  TRACK 55 AUDIO
    TITLE "0:"
    INDEX 01 01:29:01
  TRACK 56 AUDIO
    TITLE "9:cjc058_3106"
    INDEX 01 01:29:50
  TRACK 57 AUDIO
    TITLE "0:"
    INDEX 01 01:32:68
  TRACK 58 AUDIO
    TITLE "7:cjc058_3107"
    INDEX 01 01:34:03
  TRACK 59 AUDIO
    TITLE "0:"
    INDEX 01 01:36:01
  TRACK 60 AUDIO
    TITLE "8:cjc058_3108"
    INDEX 01 01:36:37
  TRACK 61 AUDIO
    TITLE "0:"
    INDEX 01 01:40:19
  TRACK 62 AUDIO
    TITLE "9:cjc058_3109"
    INDEX 01 01:40:62
  TRACK 63 AUDIO
    TITLE "0:"
    INDEX 01 01:43:56
  TRACK 64 AUDIO
    TITLE "7:cjc058_3110"
    INDEX 01 01:44:64
  TRACK 65 AUDIO
    TITLE "0:"
    INDEX 01 01:47:11
  TRACK 66 AUDIO
    TITLE "8:cjc058_3111"
    INDEX 01 01:47:46
  TRACK 67 AUDIO
    TITLE "0:"
    INDEX 01 01:50:27
  TRACK 68 AUDIO
    TITLE "9:cjc058_3112"
    INDEX 01 01:50:74
  TRACK 69 AUDIO
    TITLE "0:"
    INDEX 01 01:54:62
  TRACK 70 AUDIO
    TITLE "7:cjc058_3113"
    INDEX 01 01:55:73
  TRACK 71 AUDIO
    TITLE "0:"
    INDEX 01 01:58:17
  TRACK 72 AUDIO
    TITLE "8:cjc058_3114"
    INDEX 01 01:58:52
  TRACK 73 AUDIO
    TITLE "0:"
    INDEX 01 02:01:23
  TRACK 74 AUDIO
    TITLE "9:cjc058_3115"
    INDEX 01 02:01:70
  TRACK 75 AUDIO
    TITLE "0:"
    INDEX 01 02:04:43
  TRACK 76 AUDIO
    TITLE "7:cjc058_3116"
    INDEX 01 02:05:52
  TRACK 77 AUDIO
    TITLE "0:"
    INDEX 01 02:08:00
  TRACK 78 AUDIO
    TITLE "8:cjc058_3117"
    INDEX 01 02:08:35
  TRACK 79 AUDIO
    TITLE "0:"
    INDEX 01 02:10:59
  TRACK 80 AUDIO
    TITLE "9:cjc058_3118"
    INDEX 01 02:11:29
  TRACK 81 AUDIO
    TITLE "0:"
    INDEX 01 02:13:63
  TRACK 82 AUDIO
    TITLE "7:cjc058_3119"
    INDEX 01 02:14:71
  TRACK 83 AUDIO
    TITLE "0:"
    INDEX 01 02:17:02
  TRACK 84 AUDIO
    TITLE "8:cjc058_3120"
    INDEX 01 02:17:38
  TRACK 85 AUDIO
    TITLE "0:"
    INDEX 01 02:21:37
  TRACK 86 AUDIO
    TITLE "9:cjc058_3121"
    INDEX 01 02:22:07
  TRACK 87 AUDIO
    TITLE "0:"
    INDEX 01 02:26:05
  TRACK 88 AUDIO
    TITLE "7:cjc058_3122"
    INDEX 01 02:27:14
  TRACK 89 AUDIO
    TITLE "0:"
    INDEX 01 02:29:08
  TRACK 90 AUDIO
    TITLE "8:cjc058_3123"
    INDEX 01 02:29:41
  TRACK 91 AUDIO
    TITLE "0:"
    INDEX 01 02:31:69
  TRACK 92 AUDIO
    TITLE "9:cjc058_3124"
    INDEX 01 02:32:39
  TRACK 93 AUDIO
    TITLE "0:"
    INDEX 01 02:35:16
